<?xml version="1.0" encoding="UTF-8" standalone="no"?><!DOCTYPE svg PUBLIC "-//W3C//DTD SVG 1.1//EN" "http://www.w3.org/Graphics/SVG/1.1/DTD/svg11.dtd"><svg width="100%" height="100%" viewBox="0 0 1000 1000" version="1.1" xmlns="http://www.w3.org/2000/svg" xmlns:xlink="http://www.w3.org/1999/xlink" xml:space="preserve" xmlns:serif="http://www.serif.com/" style="fill-rule:evenodd;clip-rule:evenodd;stroke-linejoin:round;stroke-miterlimit:2;"><circle cx="500" cy="500" r="499.5" style="fill:url(#_Linear1);"/><path d="M285.23,654.174l0,-510.174l174.623,0c39.718,0 72.417,7.247 98.097,21.742c25.68,14.495 44.74,33.955 57.181,58.379c12.44,24.424 18.661,51.816 18.661,82.176c0,30.359 -6.22,57.865 -18.661,82.518c-12.44,24.653 -31.444,44.284 -57.009,58.893c-25.566,14.609 -58.208,21.914 -97.926,21.914l-123.606,0l0,-57.181l120.524,0c26.935,0 48.621,-4.622 65.056,-13.867c16.435,-9.245 28.362,-21.914 35.781,-38.006c7.419,-16.093 11.128,-34.183 11.128,-54.27c0,-20.087 -3.709,-38.063 -11.128,-53.928c-7.419,-15.864 -19.403,-28.362 -35.952,-37.493c-16.549,-9.131 -38.406,-13.696 -65.569,-13.696l-106.144,0l0,452.994l-65.056,0Z" style="fill:#eb5b66;fill-rule:nonzero;"/><path d="M484.162,846.622l0,-307.622l39.227,0l0,272.938l142.456,0l0,34.685l-181.683,0Z" style="fill:#da5061;fill-rule:nonzero;"/><circle cx="705.304" cy="500" r="71.5" style="fill:#eb5b66;"/><defs><linearGradient id="_Linear1" x1="0" y1="0" x2="1" y2="0" gradientUnits="userSpaceOnUse" gradientTransform="matrix(499.5,0,0,499.5,500,500)"><stop offset="0" style="stop-color:#b9324c;stop-opacity:1"/><stop offset="1" style="stop-color:#c74048;stop-opacity:1"/></linearGradient></defs></svg>