<svg xmlns="http://www.w3.org/2000/svg" width="400" zoomAndPan="magnify"
     viewBox="0 0 300 300" height="400" preserveAspectRatio="xMidYMid meet" version="1.0">
    <defs>
        <g/>
        <clipPath id="ba92fbfa5a">
            <rect x="0" width="228" y="0" height="96"/>
        </clipPath>
        <clipPath id="5d99466522">
            <rect x="0" width="226" y="0" height="99"/>
        </clipPath>
    </defs>
    <g transform="matrix(1, 0, 0, 1, 36, 64)">
        <g clip-path="url(#ba92fbfa5a)">
            <g fill="currentcolor" fill-opacity="1">
                <g transform="translate(0.757759, 78.243928)">
                    <g>
                        <path d="M 6.484375 0 L 6.484375 -39.359375 L 8.578125 -39.359375 C 9.242188 -39.359375 9.628906 -39.03125 9.734375 -38.375 L 10.09375 -32.671875 C 11.625 -34.867188 13.375 -36.640625 15.34375 -37.984375 C 17.320312 -39.328125 19.550781 -40 22.03125 -40 C 24.90625 -40 27.207031 -39.164062 28.9375 -37.5 C 30.664062 -35.84375 31.832031 -33.535156 32.4375 -30.578125 C 32.914062 -32.191406 33.582031 -33.59375 34.4375 -34.78125 C 35.289062 -35.96875 36.269531 -36.945312 37.375 -37.71875 C 38.488281 -38.5 39.695312 -39.070312 41 -39.4375 C 42.3125 -39.8125 43.648438 -40 45.015625 -40 C 46.972656 -40 48.726562 -39.675781 50.28125 -39.03125 C 51.84375 -38.382812 53.160156 -37.425781 54.234375 -36.15625 C 55.316406 -34.894531 56.148438 -33.335938 56.734375 -31.484375 C 57.316406 -29.640625 57.609375 -27.53125 57.609375 -25.15625 L 57.609375 0 L 53.84375 0 L 53.84375 -25.15625 C 53.84375 -29.007812 53.007812 -31.941406 51.34375 -33.953125 C 49.6875 -35.972656 47.316406 -36.984375 44.234375 -36.984375 C 42.859375 -36.984375 41.546875 -36.734375 40.296875 -36.234375 C 39.046875 -35.734375 37.9375 -34.988281 36.96875 -34 C 36.007812 -33.007812 35.242188 -31.773438 34.671875 -30.296875 C 34.109375 -28.828125 33.828125 -27.113281 33.828125 -25.15625 L 33.828125 0 L 30.03125 0 L 30.03125 -25.15625 C 30.03125 -28.976562 29.269531 -31.90625 27.75 -33.9375 C 26.238281 -35.96875 24.019531 -36.984375 21.09375 -36.984375 C 18.945312 -36.984375 16.960938 -36.347656 15.140625 -35.078125 C 13.328125 -33.816406 11.707031 -32.066406 10.28125 -29.828125 L 10.28125 0 Z M 6.484375 0 "/>
                    </g>
                </g>
            </g>
            <g fill="currentcolor" fill-opacity="1">
                <g transform="translate(64.443951, 78.243928)">
                    <g>
                        <path d="M 21.328125 -38.65625 L 21.328125 -36.671875 C 21.328125 -36.378906 21.28125 -36.132812 21.1875 -35.9375 C 21.09375 -35.738281 20.890625 -35.578125 20.578125 -35.453125 L 13.453125 -32.125 L 13.453125 0 L 9.65625 0 L 9.65625 -30.625 L 1.90625 -27.0625 L 1.90625 -29.078125 C 1.90625 -29.367188 1.945312 -29.597656 2.03125 -29.765625 C 2.125 -29.941406 2.316406 -30.09375 2.609375 -30.21875 L 9.65625 -33.59375 L 9.65625 -57.5625 L 13.453125 -57.5625 L 13.453125 -35.09375 Z M 21.328125 -38.65625 "/>
                    </g>
                </g>
            </g>
            <g fill="currentcolor" fill-opacity="1">
                <g transform="translate(86.793456, 78.243928)">
                    <g>
                        <path d="M 22.078125 -40 C 24.898438 -40 27.425781 -39.515625 29.65625 -38.546875 C 31.882812 -37.585938 33.757812 -36.222656 35.28125 -34.453125 C 36.8125 -32.691406 37.976562 -30.5625 38.78125 -28.0625 C 39.59375 -25.570312 40 -22.785156 40 -19.703125 C 40 -16.617188 39.59375 -13.835938 38.78125 -11.359375 C 37.976562 -8.878906 36.8125 -6.753906 35.28125 -4.984375 C 33.757812 -3.210938 31.882812 -1.851562 29.65625 -0.90625 C 27.425781 0.0390625 24.898438 0.515625 22.078125 0.515625 C 19.253906 0.515625 16.726562 0.0390625 14.5 -0.90625 C 12.269531 -1.851562 10.382812 -3.210938 8.84375 -4.984375 C 7.300781 -6.753906 6.125 -8.878906 5.3125 -11.359375 C 4.507812 -13.835938 4.109375 -16.617188 4.109375 -19.703125 C 4.109375 -22.785156 4.507812 -25.570312 5.3125 -28.0625 C 6.125 -30.5625 7.300781 -32.691406 8.84375 -34.453125 C 10.382812 -36.222656 12.269531 -37.585938 14.5 -38.546875 C 16.726562 -39.515625 19.253906 -40 22.078125 -40 Z M 22.078125 -2.453125 C 24.421875 -2.453125 26.46875 -2.851562 28.21875 -3.65625 C 29.976562 -4.457031 31.441406 -5.609375 32.609375 -7.109375 C 33.785156 -8.617188 34.664062 -10.4375 35.25 -12.5625 C 35.832031 -14.6875 36.125 -17.066406 36.125 -19.703125 C 36.125 -22.316406 35.832031 -24.691406 35.25 -26.828125 C 34.664062 -28.960938 33.785156 -30.785156 32.609375 -32.296875 C 31.441406 -33.816406 29.976562 -34.984375 28.21875 -35.796875 C 26.46875 -36.617188 24.421875 -37.03125 22.078125 -37.03125 C 19.734375 -37.03125 17.679688 -36.617188 15.921875 -35.796875 C 14.171875 -34.984375 12.707031 -33.816406 11.53125 -32.296875 C 10.351562 -30.785156 9.46875 -28.960938 8.875 -26.828125 C 8.28125 -24.691406 7.984375 -22.316406 7.984375 -19.703125 C 7.984375 -17.066406 8.28125 -14.6875 8.875 -12.5625 C 9.46875 -10.4375 10.351562 -8.617188 11.53125 -7.109375 C 12.707031 -5.609375 14.171875 -4.457031 15.921875 -3.65625 C 17.679688 -2.851562 19.734375 -2.453125 22.078125 -2.453125 Z M 22.078125 -2.453125 "/>
                    </g>
                </g>
            </g>
            <g fill="currentcolor" fill-opacity="1">
                <g transform="translate(130.938671, 78.243928)">
                    <g>
                        <path d="M 33.34375 -30.890625 C 31.84375 -33.160156 30.175781 -34.753906 28.34375 -35.671875 C 26.507812 -36.597656 24.421875 -37.0625 22.078125 -37.0625 C 19.753906 -37.0625 17.722656 -36.640625 15.984375 -35.796875 C 14.242188 -34.953125 12.785156 -33.757812 11.609375 -32.21875 C 10.429688 -30.675781 9.546875 -28.828125 8.953125 -26.671875 C 8.367188 -24.523438 8.078125 -22.160156 8.078125 -19.578125 C 8.078125 -13.722656 9.148438 -9.414062 11.296875 -6.65625 C 13.441406 -3.90625 16.546875 -2.53125 20.609375 -2.53125 C 23.191406 -2.53125 25.550781 -3.203125 27.6875 -4.546875 C 29.820312 -5.890625 31.707031 -7.773438 33.34375 -10.203125 Z M 37.109375 -57.5625 L 37.109375 0 L 35.046875 0 C 34.367188 0 33.972656 -0.34375 33.859375 -1.03125 L 33.46875 -7.234375 C 31.726562 -4.859375 29.695312 -2.972656 27.375 -1.578125 C 25.050781 -0.179688 22.441406 0.515625 19.546875 0.515625 C 14.691406 0.515625 10.914062 -1.15625 8.21875 -4.5 C 5.53125 -7.851562 4.1875 -12.878906 4.1875 -19.578125 C 4.1875 -22.453125 4.5625 -25.132812 5.3125 -27.625 C 6.070312 -30.125 7.175781 -32.289062 8.625 -34.125 C 10.070312 -35.957031 11.859375 -37.398438 13.984375 -38.453125 C 16.109375 -39.503906 18.554688 -40.03125 21.328125 -40.03125 C 23.984375 -40.03125 26.285156 -39.539062 28.234375 -38.5625 C 30.191406 -37.59375 31.894531 -36.144531 33.34375 -34.21875 L 33.34375 -57.5625 Z M 37.109375 -57.5625 "/>
                    </g>
                </g>
            </g>
            <g fill="currentcolor" fill-opacity="1">
                <g transform="translate(174.53009, 78.243928)">
                    <g>
                        <path d="M 32.328125 -39.359375 L 32.328125 -37.78125 C 32.328125 -37.226562 32.140625 -36.726562 31.765625 -36.28125 L 7.125 -2.96875 L 31.328125 -2.96875 L 31.328125 0 L 2.578125 0 L 2.578125 -1.5 C 2.578125 -1.945312 2.773438 -2.4375 3.171875 -2.96875 L 27.890625 -36.390625 L 3.875 -36.390625 L 3.875 -39.359375 Z M 32.328125 -39.359375 "/>
                    </g>
                </g>
            </g>
            <g fill="currentcolor" fill-opacity="1">
                <g transform="translate(209.616845, 78.243928)">
                    <g>
                        <path d="M 10.6875 -39.359375 L 10.6875 0 L 6.921875 0 L 6.921875 -39.359375 Z M 12.296875 -52.9375 C 12.296875 -52.457031 12.195312 -52.015625 12 -51.609375 C 11.800781 -51.203125 11.546875 -50.835938 11.234375 -50.515625 C 10.921875 -50.203125 10.550781 -49.953125 10.125 -49.765625 C 9.707031 -49.585938 9.257812 -49.5 8.78125 -49.5 C 8.3125 -49.5 7.863281 -49.585938 7.4375 -49.765625 C 7.019531 -49.953125 6.648438 -50.203125 6.328125 -50.515625 C 6.015625 -50.835938 5.765625 -51.203125 5.578125 -51.609375 C 5.390625 -52.015625 5.296875 -52.457031 5.296875 -52.9375 C 5.296875 -53.40625 5.390625 -53.859375 5.578125 -54.296875 C 5.765625 -54.734375 6.015625 -55.109375 6.328125 -55.421875 C 6.648438 -55.742188 7.019531 -55.992188 7.4375 -56.171875 C 7.863281 -56.359375 8.3125 -56.453125 8.78125 -56.453125 C 9.257812 -56.453125 9.707031 -56.359375 10.125 -56.171875 C 10.550781 -55.992188 10.921875 -55.742188 11.234375 -55.421875 C 11.546875 -55.109375 11.800781 -54.734375 12 -54.296875 C 12.195312 -53.859375 12.296875 -53.40625 12.296875 -52.9375 Z M 12.296875 -52.9375 "/>
                    </g>
                </g>
            </g>
        </g>
    </g>
    <g transform="matrix(1, 0, 0, 1, 37, 112)">
        <g clip-path="url(#5d99466522)">
            <g fill="currentcolor" fill-opacity="1">
                <g transform="translate(1.028295, 80.714209)">
                    <g>
                        <path d="M 16.140625 -35.8125 C 17.441406 -38.101562 18.941406 -39.898438 20.640625 -41.203125 C 22.347656 -42.515625 24.300781 -43.171875 26.5 -43.171875 C 28.40625 -43.171875 29.957031 -42.722656 31.15625 -41.828125 L 30.34375 -32.515625 C 30.207031 -31.910156 29.984375 -31.5 29.671875 -31.28125 C 29.359375 -31.0625 28.929688 -30.953125 28.390625 -30.953125 C 28.171875 -30.953125 27.882812 -30.96875 27.53125 -31 C 27.175781 -31.03125 26.804688 -31.0625 26.421875 -31.09375 C 26.046875 -31.132812 25.660156 -31.175781 25.265625 -31.21875 C 24.867188 -31.257812 24.503906 -31.28125 24.171875 -31.28125 C 22.328125 -31.28125 20.851562 -30.789062 19.75 -29.8125 C 18.644531 -28.832031 17.710938 -27.472656 16.953125 -25.734375 L 16.953125 0 L 4.28125 0 L 4.28125 -42.359375 L 11.796875 -42.359375 C 12.429688 -42.359375 12.957031 -42.300781 13.375 -42.1875 C 13.800781 -42.082031 14.15625 -41.910156 14.4375 -41.671875 C 14.71875 -41.441406 14.929688 -41.132812 15.078125 -40.75 C 15.234375 -40.375 15.367188 -39.914062 15.484375 -39.375 Z M 16.140625 -35.8125 "/>
                    </g>
                </g>
            </g>
            <g fill="currentcolor" fill-opacity="1">
                <g transform="translate(31.781367, 80.714209)">
                    <g>
                        <path d="M 26.140625 -17.234375 C 23.609375 -17.128906 21.523438 -16.910156 19.890625 -16.578125 C 18.253906 -16.253906 16.957031 -15.847656 16 -15.359375 C 15.050781 -14.867188 14.394531 -14.3125 14.03125 -13.6875 C 13.664062 -13.0625 13.484375 -12.378906 13.484375 -11.640625 C 13.484375 -10.191406 13.875 -9.175781 14.65625 -8.59375 C 15.445312 -8.007812 16.609375 -7.71875 18.140625 -7.71875 C 19.765625 -7.71875 21.191406 -8.003906 22.421875 -8.578125 C 23.648438 -9.148438 24.890625 -10.078125 26.140625 -11.359375 Z M 3.34375 -36.46875 C 5.90625 -38.726562 8.742188 -40.410156 11.859375 -41.515625 C 14.984375 -42.617188 18.328125 -43.171875 21.890625 -43.171875 C 24.453125 -43.171875 26.757812 -42.753906 28.8125 -41.921875 C 30.875 -41.097656 32.617188 -39.941406 34.046875 -38.453125 C 35.472656 -36.972656 36.566406 -35.210938 37.328125 -33.171875 C 38.085938 -31.128906 38.46875 -28.894531 38.46875 -26.46875 L 38.46875 0 L 32.671875 0 C 31.472656 0 30.566406 -0.160156 29.953125 -0.484375 C 29.347656 -0.816406 28.835938 -1.5 28.421875 -2.53125 L 27.53125 -4.859375 C 26.46875 -3.960938 25.445312 -3.171875 24.46875 -2.484375 C 23.488281 -1.804688 22.472656 -1.226562 21.421875 -0.75 C 20.367188 -0.28125 19.25 0.0664062 18.0625 0.296875 C 16.882812 0.535156 15.570312 0.65625 14.125 0.65625 C 12.195312 0.65625 10.441406 0.40625 8.859375 -0.09375 C 7.285156 -0.601562 5.945312 -1.347656 4.84375 -2.328125 C 3.738281 -3.304688 2.882812 -4.523438 2.28125 -5.984375 C 1.6875 -7.441406 1.390625 -9.125 1.390625 -11.03125 C 1.390625 -12.550781 1.769531 -14.09375 2.53125 -15.65625 C 3.289062 -17.226562 4.609375 -18.660156 6.484375 -19.953125 C 8.367188 -21.242188 10.90625 -22.320312 14.09375 -23.1875 C 17.28125 -24.0625 21.296875 -24.554688 26.140625 -24.671875 L 26.140625 -26.46875 C 26.140625 -28.945312 25.628906 -30.734375 24.609375 -31.828125 C 23.585938 -32.929688 22.140625 -33.484375 20.265625 -33.484375 C 18.765625 -33.484375 17.535156 -33.320312 16.578125 -33 C 15.628906 -32.675781 14.78125 -32.304688 14.03125 -31.890625 C 13.28125 -31.484375 12.550781 -31.117188 11.84375 -30.796875 C 11.132812 -30.472656 10.289062 -30.3125 9.3125 -30.3125 C 8.4375 -30.3125 7.695312 -30.523438 7.09375 -30.953125 C 6.5 -31.390625 6.015625 -31.910156 5.640625 -32.515625 Z M 3.34375 -36.46875 "/>
                    </g>
                </g>
            </g>
            <g fill="currentcolor" fill-opacity="1">
                <g transform="translate(74.051566, 80.714209)">
                    <g>
                        <path d="M 35.78125 -37.296875 C 35.78125 -36.421875 35.628906 -35.570312 35.328125 -34.75 C 35.023438 -33.9375 34.628906 -33.269531 34.140625 -32.75 L 16.453125 -9.390625 L 35.375 -9.390625 L 35.375 0 L 1.875 0 L 1.875 -5.140625 C 1.875 -5.660156 2.007812 -6.316406 2.28125 -7.109375 C 2.5625 -7.898438 2.972656 -8.632812 3.515625 -9.3125 L 21.359375 -32.953125 L 3.015625 -32.953125 L 3.015625 -42.359375 L 35.78125 -42.359375 Z M 35.78125 -37.296875 "/>
                    </g>
                </g>
            </g>
            <g fill="currentcolor" fill-opacity="1">
                <g transform="translate(111.420835, 80.714209)">
                    <g>
                        <path d="M 30.625 -26.265625 C 30.625 -27.273438 30.492188 -28.253906 30.234375 -29.203125 C 29.984375 -30.148438 29.5625 -31 28.96875 -31.75 C 28.382812 -32.5 27.613281 -33.101562 26.65625 -33.5625 C 25.707031 -34.03125 24.554688 -34.265625 23.203125 -34.265625 C 20.804688 -34.265625 18.925781 -33.578125 17.5625 -32.203125 C 16.195312 -30.828125 15.296875 -28.847656 14.859375 -26.265625 Z M 14.703125 -18.90625 C 15.109375 -15.363281 16.179688 -12.796875 17.921875 -11.203125 C 19.671875 -9.617188 21.921875 -8.828125 24.671875 -8.828125 C 26.140625 -8.828125 27.40625 -9.003906 28.46875 -9.359375 C 29.53125 -9.710938 30.472656 -10.101562 31.296875 -10.53125 C 32.128906 -10.96875 32.894531 -11.363281 33.59375 -11.71875 C 34.289062 -12.070312 35.019531 -12.25 35.78125 -12.25 C 36.789062 -12.25 37.550781 -11.882812 38.0625 -11.15625 L 41.75 -6.609375 C 40.4375 -5.117188 39.023438 -3.898438 37.515625 -2.953125 C 36.003906 -2.015625 34.453125 -1.28125 32.859375 -0.75 C 31.265625 -0.21875 29.671875 0.144531 28.078125 0.34375 C 26.484375 0.550781 24.96875 0.65625 23.53125 0.65625 C 20.5625 0.65625 17.773438 0.171875 15.171875 -0.796875 C 12.566406 -1.765625 10.289062 -3.203125 8.34375 -5.109375 C 6.40625 -7.015625 4.867188 -9.378906 3.734375 -12.203125 C 2.609375 -15.035156 2.046875 -18.332031 2.046875 -22.09375 C 2.046875 -24.925781 2.523438 -27.609375 3.484375 -30.140625 C 4.453125 -32.671875 5.84375 -34.890625 7.65625 -36.796875 C 9.46875 -38.703125 11.660156 -40.210938 14.234375 -41.328125 C 16.804688 -42.453125 19.710938 -43.015625 22.953125 -43.015625 C 25.753906 -43.015625 28.316406 -42.578125 30.640625 -41.703125 C 32.972656 -40.828125 34.976562 -39.554688 36.65625 -37.890625 C 38.332031 -36.234375 39.640625 -34.203125 40.578125 -31.796875 C 41.515625 -29.390625 41.984375 -26.660156 41.984375 -23.609375 C 41.984375 -22.648438 41.941406 -21.867188 41.859375 -21.265625 C 41.785156 -20.671875 41.640625 -20.195312 41.421875 -19.84375 C 41.203125 -19.488281 40.90625 -19.242188 40.53125 -19.109375 C 40.164062 -18.972656 39.695312 -18.90625 39.125 -18.90625 Z M 14.703125 -18.90625 "/>
                    </g>
                </g>
            </g>
            <g fill="currentcolor" fill-opacity="1">
                <g transform="translate(155.447185, 80.714209)">
                    <g>
                        <path d="M 4.28125 0 L 4.28125 -42.359375 L 12.125 -42.359375 C 13.707031 -42.359375 14.742188 -41.648438 15.234375 -40.234375 L 15.921875 -37.9375 C 16.628906 -38.675781 17.363281 -39.351562 18.125 -39.96875 C 18.894531 -40.582031 19.722656 -41.113281 20.609375 -41.5625 C 21.492188 -42.007812 22.445312 -42.363281 23.46875 -42.625 C 24.488281 -42.882812 25.609375 -43.015625 26.828125 -43.015625 C 29.390625 -43.015625 31.507812 -42.351562 33.1875 -41.03125 C 34.863281 -39.707031 36.132812 -37.941406 37 -35.734375 C 37.707031 -37.046875 38.570312 -38.160156 39.59375 -39.078125 C 40.613281 -40.003906 41.71875 -40.753906 42.90625 -41.328125 C 44.09375 -41.898438 45.34375 -42.320312 46.65625 -42.59375 C 47.976562 -42.875 49.296875 -43.015625 50.609375 -43.015625 C 53.023438 -43.015625 55.171875 -42.648438 57.046875 -41.921875 C 58.929688 -41.203125 60.503906 -40.15625 61.765625 -38.78125 C 63.035156 -37.40625 64 -35.71875 64.65625 -33.71875 C 65.3125 -31.71875 65.640625 -29.453125 65.640625 -26.921875 L 65.640625 0 L 52.96875 0 L 52.96875 -26.921875 C 52.96875 -31.296875 51.09375 -33.484375 47.34375 -33.484375 C 45.625 -33.484375 44.195312 -32.921875 43.0625 -31.796875 C 41.9375 -30.671875 41.375 -29.046875 41.375 -26.921875 L 41.375 0 L 28.71875 0 L 28.71875 -26.921875 C 28.71875 -29.335938 28.238281 -31.035156 27.28125 -32.015625 C 26.332031 -32.992188 24.929688 -33.484375 23.078125 -33.484375 C 21.929688 -33.484375 20.847656 -33.222656 19.828125 -32.703125 C 18.804688 -32.191406 17.847656 -31.5 16.953125 -30.625 L 16.953125 0 Z M 4.28125 0 "/>
                    </g>
                </g>
            </g>
        </g>
    </g>
</svg>